# xmcd
#
# Track frame offsets:
#	150
#	17521
#	33220
#	48286
#	60995
#	74418
#	85459
#	97963
#	113276
#	124111
#	135806
#	148392
#	175349
#
# Disc length: 2800 seconds
#
# Revision: 0
# Processed by: cddbd v1.5.1PL0 Copyright (c) Steve Scherf et al.
# Submitted via: dBpowerAMP V4.0
#
DISCID=a20aee0d
DTITLE=Merle Haggard - collection (disk 2)
DYEAR=1900
DGENRE=country
TTITLE0=frankie and johnny
TTITLE1=Mule skinner blues
TTITLE2=train whistle blues
TTITLE3=the bottle let me down
TTITLE4=high on a hilltop
TTITLE5=sam hill
TTITLE6=house of memories
TTITLE7=I threw away a rose
TTITLE8=shade tree
TTITLE9=corrina corrina
TTITLE10=every fool has a rainbow
TTITLE11=philadelphia lawyer
TTITLE12=T.B. Blues
EXTD=
EXTT0=
EXTT1=
EXTT2=
EXTT3=
EXTT4=
EXTT5=
EXTT6=
EXTT7=
EXTT8=
EXTT9=
EXTT10=
EXTT11=
EXTT12=
PLAYORDER=
